:SAMPLES-PER-SECOND 30
:FULLY-SPECIFIED
:DEGREES
461
root  -35.361 37.3638 -30.0704 63.7354 -86.5644 -31.9968
RightUpLeg  -67.9113 -17.374 16.833
RightLeg  31.649 2.14548 1.17844
RightFoot  4.27581 1.05288 -7.45499
RightToes  0.00048216 0.542163 -0.142577
Spine  69.2056 -5.28544 8.1862
Spine1  5.4399 1.72979 -6.11988
HEad  -37.9817 -1.75104 -5.5963
LeftShoulder1  4.60442 -22.4208 -10.4133
LeftArm  -74.6905 -63.6265 25.4436
LeftForeArm  -13.0902 -11.8143 -1.13039
LeftHand  -0.25398 0.0180481 5.50724
RightShoulder  3.04435 13.849 10.2864
RightArm  -63.806 53.2447 -19.691
RightForeArm  -31.6723 12.9857 5.08909
RightHand  0.858505 8.9726 6.40308
LeftUpLeg  -69.1893 18.892 -18.43
LeftLeg  33.6303 -1.16728 -0.477507
LeftFoot  1.04926 -1.1234 10.2599
LeftToes  1.06245e-005 4.65855e-005 -8.18504e-006
462
root  -35.8785 37.2674 -30.3757 59.8928 -86.0374 -26.0175
RightUpLeg  -70.1863 -16.8329 17.834
RightLeg  33.1507 1.55838 0.843866
RightFoot  3.24543 1.23159 -9.41732
RightToes  0.00048216 0.542163 -0.142577
Spine  70.7843 -5.35829 8.08354
Spine1  4.30114 1.62991 -5.94829
HEad  -38.3781 -0.942558 -5.90263
LeftShoulder1  4.0572 -22.1213 -8.27888
LeftArm  -80.8903 -62.3034 31.7726
LeftForeArm  -14.3276 -11.4519 -0.119481
LeftHand  -0.25398 0.0180481 5.50724
RightShoulder  2.53852 13.2723 7.59324
RightArm  -68.8743 52.8347 -21.7666
RightForeArm  -29.9228 13.0465 4.11085
RightHand  0.877067 10.0337 6.04532
LeftUpLeg  -71.2821 18.2331 -18.2945
LeftLeg  34.7952 -1.09844 -0.459144
LeftFoot  0.168734 -0.996301 9.8475
LeftToes  1.06245e-005 4.65855e-005 -8.18504e-006
463
root  -36.3909 37.2241 -30.6505 58.8294 -85.7411 -22.9391
RightUpLeg  -72.0966 -16.1073 18.5602
RightLeg  34.2673 1.24014 0.651538
RightFoot  2.47115 1.33357 -10.8244
RightToes  0.00048216 0.542163 -0.142577
Spine  72.2884 -5.26203 7.79284
Spine1  3.25275 1.64727 -5.93446
HEad  -38.2454 -0.14553 -6.40715
LeftShoulder1  3.46271 -21.5355 -6.05162
LeftArm  -85.9899 -61.0266 36.6937
LeftForeArm  -15.4336 -10.9977 0.935701
LeftHand  -0.25398 0.0180481 5.50724
RightShoulder  2.00773 12.3831 4.80035
RightArm  -72.9661 52.6238 -22.8814
RightForeArm  -28.1001 12.7665 3.13212
RightHand  0.867771 10.8428 5.63423
LeftUpLeg  -73.0949 18.0216 -18.4772
LeftLeg  35.5324 -1.24689 -0.591818
LeftFoot  -0.484249 -0.885778 9.33106
LeftToes  1.06245e-005 4.65855e-005 -8.18504e-006
464
root  -36.8836 37.2084 -30.8886 56.6115 -85.649 -18.7294
RightUpLeg  -73.9104 -15.6954 19.3459
RightLeg  35.2147 1.0451 0.530477
RightFoot  1.59344 1.25035 -10.8812
RightToes  0.00048216 0.542163 -0.142577
Spine  73.2477 -5.29383 7.43233
Spine1  2.50716 1.50439 -6.34767
HEad  -37.6167 0.734782 -6.84072
LeftShoulder1  2.86934 -20.8687 -3.74925
LeftArm  -89.3935 -59.5801 40.7829
LeftForeArm  -16.872 -10.1833 1.79886
LeftHand  -0.25398 0.0180481 5.50724
RightShoulder  1.56484 11.6562 2.18614
RightArm  -75.6259 52.4305 -23.5456
RightForeArm  -27.1962 11.9587 2.21274
RightHand  0.882499 11.255 5.57564
LeftUpLeg  -74.6955 17.8105 -19.0611
LeftLeg  35.8539 -1.38013 -0.704797
LeftFoot  -0.828844 -0.820151 8.95035
LeftToes  1.06245e-005 4.65855e-005 -8.18504e-006
465
root  -37.3411 37.2119 -31.0824 54.257 -85.564 -14.5645
RightUpLeg  -75.3624 -15.5059 20.111
RightLeg  35.8181 0.77011 0.332062
RightFoot  0.49526 1.03784 -9.93953
RightToes  0.00048216 0.542163 -0.142577
Spine  73.633 -5.39978 7.15111
Spine1  2.24878 1.25296 -6.71028
HEad  -37.1307 1.67554 -7.32713
LeftShoulder1  2.31162 -19.9862 -1.57744
LeftArm  -91.3683 -58.0528 43.3862
LeftForeArm  -17.5007 -9.77288 2.43961
LeftHand  -0.25398 0.0180481 5.50724
RightShoulder  1.19005 11.1139 -0.296921
RightArm  -77.2178 52.1906 -23.8236
RightForeArm  -27.1708 11.1583 1.47017
RightHand  0.943883 11.5952 5.86263
LeftUpLeg  -76.0609 17.5875 -19.7811
LeftLeg  35.9632 -1.26165 -0.616475
LeftFoot  -1.16028 -0.756884 8.55685
LeftToes  1.06245e-005 4.65855e-005 -8.18504e-006
466
root  -37.7638 37.2466 -31.238 53.4753 -85.4227 -12.3828
RightUpLeg  -76.1943 -15.2574 20.6187
RightLeg  36.0359 0.511591 0.133465
RightFoot  -0.426794 0.880404 -9.22322
RightToes  0.00048216 0.542163 -0.142577
Spine  73.7518 -5.41283 6.96429
Spine1  2.58882 1.10083 -6.70492
HEad  -37.204 2.4439 -7.87444
LeftShoulder1  1.85831 -18.9668 0.192163
LeftArm  -92.6986 -56.6267 44.2393
LeftForeArm  -16.4778 -10.3569 2.95083
LeftHand  -0.25398 0.0180481 5.50724
RightShoulder  0.886628 10.4275 -2.32245
RightArm  -78.9183 52.1468 -23.7601
RightForeArm  -27.0923 11.2742 1.04269
RightHand  0.908058 12.1134 5.43649
LeftUpLeg  -76.9833 17.6021 -20.3995
LeftLeg  35.9058 -1.08255 -0.475397
LeftFoot  -1.56671 -0.681804 8.07034
LeftToes  1.06245e-005 4.65855e-005 -8.18504e-006
467
root  -38.1519 37.3105 -31.3682 52.6113 -85.3276 -10.5144
RightUpLeg  -76.612 -14.9913 20.8627
RightLeg  36.1016 0.305421 -0.0275212
RightFoot  -0.830325 0.866304 -9.44834
RightToes  0.00048216 0.542163 -0.142577
Spine  73.8274 -5.39592 6.76632
Spine1  3.14985 1.02817 -6.62935
HEad  -37.4137 2.93321 -8.15918
LeftShoulder1  1.53954 -18.0696 1.47451
LeftArm  -93.8751 -55.5142 44.0153
LeftForeArm  -14.5247 -11.4296 3.22323
LeftHand  -0.25398 0.0180481 5.50724
RightShoulder  0.699533 9.6207 -3.49968
RightArm  -81.0212 52.3785 -23.536
RightForeArm  -26.2581 12.4011 1.02514
RightHand  0.63833 12.3519 3.59205
LeftUpLeg  -77.4257 17.7933 -20.9613
LeftLeg  35.6575 -1.14198 -0.514153
LeftFoot  -1.79281 -0.636146 7.73476
LeftToes  1.06245e-005 4.65855e-005 -8.18504e-006
468
root  -38.4947 37.387 -31.4772 49.8088 -85.3399 -6.96173
RightUpLeg  -76.8801 -14.9012 20.9463
RightLeg  36.1503 0.042541 -0.23334
RightFoot  -0.993037 0.891216 -9.88104
RightToes  0.00048216 0.542163 -0.142577
Spine  73.8749 -5.46666 6.5404
Spine1  3.44861 0.889926 -6.72254
HEad  -37.2419 3.30022 -8.04016
LeftShoulder1  1.32734 -17.3915 2.36397
LeftArm  -94.5753 -54.9759 43.4948
LeftForeArm  -13.2871 -12.0946 3.27824
LeftHand  -0.25398 0.0180481 5.50724
RightShoulder  0.603437 9.10311 -4.1229
RightArm  -82.4693 52.6031 -23.3144
RightForeArm  -25.0334 13.5066 1.28108
RightHand  0.277522 11.6806 1.31706
LeftUpLeg  -77.5753 17.9165 -21.5009
LeftLeg  35.3442 -1.3722 -0.680798
LeftFoot  -1.74972 -0.621484 7.52262
LeftToes  1.06245e-005 4.65855e-005 -8.18504e-006
469
root  -38.7856 37.4659 -31.5624 45.9403 -85.4312 -2.58182
RightUpLeg  -76.9628 -14.9774 20.8902
RightLeg  36.1369 -0.227271 -0.444885
RightFoot  -1.32953 0.848178 -9.7499
RightToes  0.00048216 0.542163 -0.142577
Spine  73.8256 -5.57242 6.37218
Spine1  3.59527 0.673466 -6.81601
HEad  -36.9122 3.69585 -7.81245
LeftShoulder1  1.20708 -17.0044 2.89332
LeftArm  -94.4632 -54.9166 43
LeftForeArm  -13.2241 -12.1468 3.31551
LeftHand  -0.25398 0.0180481 5.50724
RightShoulder  0.521765 9.00276 -4.82695
RightArm  -82.5199 52.7217 -23.164
RightForeArm  -24.4207 13.6441 1.35271
RightHand  0.0604392 10.2884 -0.0800479
LeftUpLeg  -77.5043 17.9633 -21.8672
LeftLeg  35.0819 -1.53357 -0.793786
LeftFoot  -1.68338 -0.592312 7.12141
LeftToes  1.06245e-005 4.65855e-005 -8.18504e-006
470
root  -39.0325 37.5432 -31.6243 42.3304 -85.6083 1.27551
RightUpLeg  -76.8121 -15.0703 20.7014
RightLeg  36.0854 -0.351128 -0.541639
RightFoot  -1.73528 0.781213 -9.40742
RightToes  0.00048216 0.542163 -0.142577
Spine  73.6733 -5.60712 6.26418
Spine1  3.89854 0.477066 -6.77095
HEad  -36.8606 4.04159 -7.76336
LeftShoulder1  1.20272 -17.069 2.94046
LeftArm  -93.8386 -54.929 42.5939
LeftForeArm  -13.1973 -12.0547 3.27231
LeftHand  -0.25398 0.0180481 5.50724
RightShoulder  0.429273 8.97058 -5.66626
RightArm  -82.0974 53.0809 -22.9836
RightForeArm  -24.5383 13.0413 1.13743
RightHand  -0.0742222 9.12038 -1.09573
LeftUpLeg  -77.1328 18.0546 -21.9852
LeftLeg  34.7929 -1.57775 -0.816015
LeftFoot  -1.78257 -0.539938 6.57864
LeftToes  1.06245e-005 4.65855e-005 -8.18504e-006
471
root  -39.2428 37.6143 -31.6672 38.6621 -85.8867 5.0191
RightUpLeg  -76.5982 -15.1244 20.4576
RightLeg  36.1137 -0.395902 -0.577337
RightFoot  -1.86152 0.770158 -9.40924
RightToes  0.00048216 0.542163 -0.142577
Spine  73.4958 -5.572 6.15117
Spine1  4.19876 0.371397 -6.71505
HEad  -36.9495 4.13314 -7.8069
LeftShoulder1  1.29239 -17.4287 2.56812
LeftArm  -93.1189 -55.0187 42.2651
LeftForeArm  -12.4028 -12.0992 3.07994
LeftHand  -0.25398 0.0180481 5.50724
RightShoulder  0.369957 8.73465 -6.14333
RightArm  -82.2668 53.8881 -22.6496
RightForeArm  -24.9646 12.6209 0.959533
RightHand  -0.336504 8.732 -3.23827
LeftUpLeg  -76.5226 18.1348 -21.9365
LeftLeg  34.406 -1.51529 -0.755169
LeftFoot  -1.97477 -0.495532 6.18872
LeftToes  1.06245e-005 4.65855e-005 -8.18504e-006
472
root  -39.4126 37.6751 -31.6957 34.7014 -86.1863 8.98437
RightUpLeg  -76.4335 -15.189 20.258
RightLeg  36.217 -0.537869 -0.690493
RightFoot  -1.75495 0.7977 -9.62181
RightToes  0.00048216 0.542163 -0.142577
Spine  73.3513 -5.54875 6.07132
Spine1  4.21659 0.363052 -6.80379
HEad  -36.8332 3.90814 -7.66216
LeftShoulder1  1.37082 -17.6644 2.22495
LeftArm  -92.6233 -55.5403 41.904
LeftForeArm  -11.0782 -12.0015 2.96246
LeftHand  -0.25398 0.0180481 5.50724
RightShoulder  0.384447 8.52936 -5.94705
RightArm  -82.7806 54.7477 -22.259
RightForeArm  -25.5114 12.8468 1.05241
RightHand  -0.73359 8.78945 -6.4739
LeftUpLeg  -75.8873 18.0658 -21.7118
LeftLeg  34.0538 -1.23782 -0.540053
LeftFoot  -2.14817 -0.458197 5.85532
LeftToes  1.06245e-005 4.65855e-005 -8.18504e-006
473
root  -39.5384 37.723 -31.7153 31.5012 -86.4176 12.1065
RightUpLeg  -76.1877 -15.2976 20.1538
RightLeg  36.2366 -0.715306 -0.830379
RightFoot  -1.79217 0.812952 -9.84396
RightToes  0.00048216 0.542163 -0.142577
Spine  73.2017 -5.58717 6.10898
Spine1  4.12103 0.410783 -7.03325
HEad  -36.6476 3.51671 -7.20571
LeftShoulder1  1.37343 -17.746 2.23972
LeftArm  -92.2921 -56.3744 41.5125
LeftForeArm  -9.83661 -11.43 3.12581
LeftHand  -0.25398 0.0180481 5.50724
RightShoulder  0.45613 8.65021 -5.30935
RightArm  -83.0138 55.2424 -21.9202
RightForeArm  -25.8554 13.446 1.35162
RightHand  -1.08675 8.8166 -9.3383
LeftUpLeg  -75.3134 17.8695 -21.2247
LeftLeg  33.8852 -0.743222 -0.177084
LeftFoot  -2.31278 -0.405739 5.31181
LeftToes  1.06245e-005 4.65855e-005 -8.18504e-006
474
root  -39.6304 37.7546 -31.7303 29.0225 -86.6078 14.3965
RightUpLeg  -75.7568 -15.4368 20.0984
RightLeg  36.097 -0.725902 -0.835613
RightFoot  -2.12795 0.815596 -10.2642
RightToes  0.00048216 0.542163 -0.142577
Spine  73.0018 -5.65912 6.19459
Spine1  4.19167 0.428518 -7.29135
HEad  -36.7468 3.144 -6.56299
LeftShoulder1  1.35872 -17.913 2.37601
LeftArm  -91.7864 -57.0584 41.3135
LeftForeArm  -8.94425 -10.5597 3.32801
LeftHand  -0.25398 0.0180481 5.50724
RightShoulder  0.532657 8.97247 -4.71609
RightArm  -83.0782 55.5387 -21.3508
RightForeArm  -25.4184 14.1127 1.6506
RightHand  -1.31334 8.75625 -11.2122
LeftUpLeg  -74.709 17.6796 -20.6051
LeftLeg  33.8265 -0.247679 0.181198
LeftFoot  -2.5332 -0.350111 4.74206
LeftToes  1.06245e-005 4.65855e-005 -8.18504e-006
475
root  -39.7032 37.7677 -31.7391 24.9089 -86.8222 18.2433
RightUpLeg  -75.2648 -15.6051 19.95
RightLeg  35.943 -0.575455 -0.71468
RightFoot  -2.58241 0.810669 -10.7688
RightToes  0.00048216 0.542163 -0.142577
Spine  72.7859 -5.69007 6.19558
Spine1  4.35499 0.381232 -7.4305
HEad  -37.0911 2.7648 -5.96692
LeftShoulder1  1.38417 -18.1018 2.30568
LeftArm  -91.1269 -57.6713 41.2988
LeftForeArm  -8.14436 -9.87807 3.22687
LeftHand  -0.25398 0.0180481 5.50724
RightShoulder  0.586074 9.34043 -4.38025
RightArm  -83.3324 55.8048 -20.2651
RightForeArm  -24.3747 14.9535 1.96831
RightHand  -1.52167 8.77825 -12.8807
LeftUpLeg  -73.9992 17.5509 -20.1519
LeftLeg  33.7126 0.119623 0.445221
LeftFoot  -2.87883 -0.314385 4.48341
LeftToes  1.06245e-005 4.65855e-005 -8.18504e-006
